<?xml version="1.0" standalone="no"?>
<!DOCTYPE svg PUBLIC "-//W3C//DTD SVG 20010904//EN"
 "http://www.w3.org/TR/2001/REC-SVG-20010904/DTD/svg10.dtd">
<svg version="1.0" xmlns="http://www.w3.org/2000/svg"
 width="1000.000000pt" height="1000.000000pt" viewBox="0 0 1000.000000 1000.000000"
 preserveAspectRatio="xMidYMid meet">
<metadata>
Created by potrace 1.14, written by Peter Selinger 2001-2017
</metadata>
<g transform="translate(0.000000,1000.000000) scale(0.100000,-0.100000)"
fill="#000000" stroke="none">
<path d="M4449 9987 c-74 -28 -119 -66 -349 -293 -555 -549 -1032 -1022 -2032
-2015 -2058 -2046 -2001 -1988 -2032 -2052 -73 -154 -12 -255 179 -292 28 -6
496 -9 2468 -17 l767 -3 0 -307 c0 -239 -3 -308 -12 -309 -13 -1 -1130 1
-2483 5 -379 1 -714 -2 -744 -6 -73 -12 -156 -53 -183 -91 -34 -48 -31 -135 8
-207 36 -68 -61 31 2349 -2396 1947 -1960 1924 -1937 1987 -1967 143 -68 240
-21 283 138 18 64 17 24 27 2513 l3 762 307 0 c239 0 308 -3 309 -12 1 -7 0
-400 -1 -873 -7 -2595 -11 -2395 52 -2490 37 -56 83 -78 149 -71 91 10 141 47
379 283 508 501 1604 1589 3525 3498 276 275 516 520 532 545 58 88 71 155 43
217 -27 60 -94 100 -197 118 -21 4 -405 8 -853 10 -448 2 -1167 5 -1598 7
l-782 3 2 310 3 310 890 -3 c2030 -8 2281 -8 2338 0 87 12 166 54 194 103 30
52 25 125 -14 198 -35 66 53 -24 -2293 2337 -1773 1785 -1945 1957 -1985 1987
-57 43 -112 65 -171 66 -85 2 -137 -51 -169 -169 -18 -63 -17 -6 -27 -2511
l-3 -763 -307 0 c-239 0 -308 3 -309 13 -1 12 1 1233 5 2497 1 371 -2 700 -6
730 -11 71 -52 154 -88 180 -37 26 -114 34 -161 17z"/>
</g>
</svg>
